<?xml version="1.0" encoding="iso-8859-1"?>
<!-- Uploaded to: SVG Repo, www.svgrepo.com, Generator: SVG Repo Mixer Tools -->
<svg fill="#000000" height="800px" width="800px" version="1.1" id="Capa_1" xmlns="http://www.w3.org/2000/svg" xmlns:xlink="http://www.w3.org/1999/xlink" 
	 viewBox="0 0 512.001 512.001" xml:space="preserve">
<g>
	<g>
		<path d="M362.485,228.896c-2.02-1.423-4.608-1.777-6.938-0.946l-35.441,12.657v-12.916c0-4.2-3.404-7.604-7.604-7.604h-54.766
			c-4.2,0-7.604,3.404-7.604,7.604s3.404,7.604,7.604,7.604h47.162v16.102c0,2.473,1.202,4.792,3.224,6.216
			c2.02,1.423,4.608,1.777,6.938,0.946l35.441-12.657v61.488l-35.441-12.657c-2.329-0.831-4.918-0.478-6.938,0.946
			c-2.022,1.424-3.224,3.742-3.224,6.216v16.102H183.05v-82.7h20.277c4.201,0,7.604-3.404,7.604-7.604
			c0-4.2-3.404-7.604-7.604-7.604h-27.881c-4.2,0-7.604,3.404-7.604,7.604V325.6c0,4.2,3.404,7.604,7.604,7.604h137.057
			c4.201,0,7.604-3.404,7.604-7.604v-12.916l35.441,12.657c2.329,0.83,4.916,0.478,6.938-0.946c2.022-1.424,3.224-3.742,3.224-6.216
			v-83.069C365.709,232.639,364.507,230.321,362.485,228.896z"/>
	</g>
</g>
<g>
	<g>
		<path d="M486.147,128.983h-31.875v-16.727c0-10.903-8.869-19.772-19.772-19.772H280.334c-4.201,0-7.604,3.404-7.604,7.604
			s3.404,7.604,7.604,7.604H434.5c2.516,0,4.564,2.048,4.564,4.564v16.727H209.693c-4.069,0-7.835-2.37-9.595-6.038l-14.396-29.99
			c-4.276-8.909-13.424-14.666-23.306-14.666h-51.378c-4.2,0-7.604,3.404-7.604,7.604s3.404,7.604,7.604,7.604h51.378
			c4.069,0,7.835,2.37,9.595,6.039l14.396,29.989c4.276,8.909,13.424,14.666,23.306,14.666h276.454
			c5.869,0,10.645,4.774,10.645,10.644v253.025c0,5.869-4.775,10.644-10.645,10.644H25.852c-5.869,0-10.644-4.774-10.644-10.644
			V104.142c0-5.869,4.774-10.644,10.644-10.644c4.2,0,7.604-3.404,7.604-7.604s-3.404-7.604-7.604-7.604
			C11.597,78.29,0,89.888,0,104.142v303.718c0,14.255,11.597,25.852,25.852,25.852h460.296c14.256,0,25.853-11.597,25.853-25.852
			V154.835C512,140.581,500.403,128.983,486.147,128.983z"/>
	</g>
</g>
<g>
	<g>
		<path d="M47.145,127.65c-4.2,0-7.604,3.404-7.604,7.604v88.742c0,4.2,3.404,7.604,7.604,7.604s7.604-3.404,7.604-7.604v-88.742
			C54.749,131.053,51.345,127.65,47.145,127.65z"/>
	</g>
</g>
</svg>